:FULLY-SPECIFIED
:FORCE-ALL-JOINTS-BE-3DOF
:DEGREES
3160
root 0.947088 16.9255 -33.3592 1086.06 5.18053 -3.73863
lfemur -18.596 -2.39281 -8.22151
ltibia 35.2324 0 0
lfoot -16.4301 7.55928 0
ltoes -39.3102 0 0
rfemur -19.4842 -0.242202 18.5298
rtibia 39.1271 0 0
rfoot -12.1621 -21.0703 0
rtoes -16.4443 0 0
lowerback 5.69859 1.54543 -0.50447
upperback -3.95869 2.16061 1.891
thorax -7.44148 1.14455 2.00676
lowerneck -5.33148 -5.12591 -7.92861
upperneck 9.16535 -6.76797 5.99206
head 4.08364 -3.32892 2.75211
lclavicle 1.7618e-14 -1.28571e-14 0
lhumerus -33.0707 -18.5735 94.9148
lradius 51.362 0 0
lwrist -9.22828 0 0
lhand -33.7926 390.855 0
lfingers 7.12502 0 0
lthumb -6.9793 -659.281 0
rclavicle 1.7618e-14 -1.28571e-14 0
rhumerus -35.4092 14.0216 -81.3337
rradius 50.8701 0 0
rwrist 0.795136 0 0
rhand -28.8142 -393.811 0
rfingers 7.12502 0 0
rthumb -2.17222 296.222 0
3161
root 0.953915 16.9282 -33.3548 1086.06 5.09346 -3.76702
lfemur -18.5237 -2.38464 -8.22565
ltibia 35.1957 0 0
lfoot -16.4209 7.63038 0
ltoes -39.3643 0 0
rfemur -19.4343 -0.212671 18.5331
rtibia 39.0386 0 0
rfoot -12.1362 -21.0217 0
rtoes -16.4422 0 0
lowerback 5.66913 1.55852 -0.51481
upperback -3.96499 2.17688 1.88631
thorax -7.43202 1.15298 2.0063
lowerneck -5.36135 -5.11807 -7.92254
upperneck 9.24146 -6.75753 5.98087
head 4.11042 -3.32369 2.74707
lclavicle 1.99945e-14 -1.03983e-14 0
lhumerus -33.0112 -18.3479 94.8251
lradius 50.8501 0 0
lwrist -9.38449 0 0
lhand -33.8159 390.864 0
lfingers 7.12502 0 0
lthumb -7.00181 -659.272 0
rclavicle 1.99945e-14 -1.03983e-14 0
rhumerus -35.3958 13.7573 -81.3275
rradius 50.3478 0 0
rwrist 0.87914 0 0
rhand -28.7297 -393.765 0
rfingers 7.12502 0 0
rthumb -2.09061 296.268 0
3162
root 0.960742 16.9308 -33.3504 1086.05 5.00639 -3.7954
lfemur -18.4515 -2.37647 -8.22978
ltibia 35.1591 0 0
lfoot -16.4116 7.70148 0
ltoes -39.4183 0 0
rfemur -19.3844 -0.183141 18.5363
rtibia 38.9502 0 0
rfoot -12.1103 -20.9731 0
rtoes -16.4402 0 0
lowerback 5.63966 1.57162 -0.525151
upperback -3.97129 2.19315 1.88162
thorax -7.42257 1.16141 2.00583
lowerneck -5.39123 -5.11023 -7.91648
upperneck 9.31758 -6.74709 5.96968
head 4.1372 -3.31847 2.74202
lclavicle 2.23711e-14 -7.93956e-15 0
lhumerus -32.9516 -18.1224 94.7353
lradius 50.3383 0 0
lwrist -9.5407 0 0
lhand -33.8392 390.874 0
lfingers 7.12502 0 0
lthumb -7.02432 -659.263 0
rclavicle 2.23711e-14 -7.93956e-15 0
rhumerus -35.3823 13.4931 -81.3214
rradius 49.8255 0 0
rwrist 0.963143 0 0
rhand -28.6452 -393.718 0
rfingers 7.12502 0 0
rthumb -2.009 296.313 0
3163
root 0.967569 16.9335 -33.346 1086.05 4.91932 -3.82379
lfemur -18.3792 -2.3683 -8.23392
ltibia 35.1224 0 0
lfoot -16.4024 7.77258 0
ltoes -39.4724 0 0
rfemur -19.3345 -0.15361 18.5396
rtibia 38.8617 0 0
rfoot -12.0844 -20.9245 0
rtoes -16.4381 0 0
lowerback 5.6102 1.58471 -0.535491
upperback -3.97759 2.20942 1.87693
thorax -7.41311 1.16984 2.00537
lowerneck -5.4211 -5.10239 -7.91041
upperneck 9.39369 -6.73665 5.95849
head 4.16398 -3.31324 2.73698
lclavicle 2.47476e-14 -5.48079e-15 0
lhumerus -32.8921 -17.8968 94.6456
lradius 49.8264 0 0
lwrist -9.69691 0 0
lhand -33.8625 390.883 0
lfingers 7.12502 0 0
lthumb -7.04683 -659.254 0
rclavicle 2.47476e-14 -5.48079e-15 0
rhumerus -35.3689 13.2288 -81.3152
rradius 49.3032 0 0
rwrist 1.04715 0 0
rhand -28.5607 -393.672 0
rfingers 7.12502 0 0
rthumb -1.92739 296.359 0
3164
root 0.974396 16.9361 -33.3415 1086.04 4.83225 -3.85218
lfemur -18.3069 -2.36013 -8.23806
ltibia 35.0857 0 0
lfoot -16.3932 7.84368 0
ltoes -39.5264 0 0
rfemur -19.2846 -0.124079 18.5429
rtibia 38.7733 0 0
rfoot -12.0586 -20.876 0
rtoes -16.436 0 0
lowerback 5.58074 1.59781 -0.545832
upperback -3.98389 2.22569 1.87224
thorax -7.40365 1.17827 2.00491
lowerneck -5.45097 -5.09455 -7.90435
upperneck 9.4698 -6.72622 5.9473
head 4.19077 -3.30802 2.73194
lclavicle 2.71241e-14 -3.02201e-15 0
lhumerus -32.8326 -17.6712 94.5559
lradius 49.3145 0 0
lwrist -9.85312 0 0
lhand -33.8858 390.893 0
lfingers 7.12502 0 0
lthumb -7.06934 -659.246 0
rclavicle 2.71241e-14 -3.02201e-15 0
rhumerus -35.3555 12.9646 -81.309
rradius 48.7809 0 0
rwrist 1.13115 0 0
rhand -28.4762 -393.626 0
rfingers 7.12502 0 0
rthumb -1.84578 296.404 0
3165
root 0.981222 16.9388 -33.3371 1086.04 4.74518 -3.88057
lfemur -18.2346 -2.35196 -8.24219
ltibia 35.049 0 0
lfoot -16.384 7.91478 0
ltoes -39.5805 0 0
rfemur -19.2346 -0.0945483 18.5462
rtibia 38.6848 0 0
rfoot -12.0327 -20.8274 0
rtoes -16.4339 0 0
lowerback 5.55128 1.61091 -0.556172
upperback -3.99019 2.24197 1.86755
thorax -7.39419 1.1867 2.00445
lowerneck -5.48084 -5.08672 -7.89828
upperneck 9.54591 -6.71578 5.93612
head 4.21755 -3.30279 2.7269
lclavicle 2.95006e-14 -5.63233e-16 0
lhumerus -32.773 -17.4456 94.4662
lradius 48.8026 0 0
lwrist -10.0093 0 0
lhand -33.9092 390.902 0
lfingers 7.12502 0 0
lthumb -7.09185 -659.237 0
rclavicle 2.95006e-14 -5.63233e-16 0
rhumerus -35.3421 12.7003 -81.3028
rradius 48.2587 0 0
rwrist 1.21515 0 0
rhand -28.3917 -393.58 0
rfingers 7.12502 0 0
rthumb -1.76417 296.45 0
3166
root 0.988049 16.9415 -33.3327 1086.04 4.65811 -3.90895
lfemur -18.1624 -2.34379 -8.24633
ltibia 35.0123 0 0
lfoot -16.3747 7.98588 0
ltoes -39.6345 0 0
rfemur -19.1847 -0.0650176 18.5494
rtibia 38.5964 0 0
rfoot -12.0068 -20.7788 0
rtoes -16.4318 0 0
lowerback 5.52182 1.624 -0.566513
upperback -3.99649 2.25824 1.86286
thorax -7.38473 1.19513 2.00399
lowerneck -5.51071 -5.07888 -7.89222
upperneck 9.62203 -6.70534 5.92493
head 4.24433 -3.29757 2.72185
lclavicle 3.18772e-14 1.89554e-15 0
lhumerus -32.7135 -17.22 94.3764
lradius 48.2908 0 0
lwrist -10.1655 0 0
lhand -33.9325 390.911 0
lfingers 7.12502 0 0
lthumb -7.11436 -659.228 0
rclavicle 3.18772e-14 1.89554e-15 0
rhumerus -35.3287 12.436 -81.2966
rradius 47.7364 0 0
rwrist 1.29916 0 0
rhand -28.3072 -393.533 0
rfingers 7.12502 0 0
rthumb -1.68256 296.495 0
